<svg width="1510" height="540" viewBox="0 0 1510 540" fill="none" xmlns="http://www.w3.org/2000/svg">
<path opacity="0.2" d="M675.867 677.5H699.294L1412.5 78L791.194 677.5H814L1510 0.000244141H1484.42L852.5 526L1394.67 0.000244141H1371.87L675.867 677.5ZM518.309 677.5H493.493L1067 60.5L374.731 677.5H349.842L1117.28 0.000244141H1142.86L518.309 677.5ZM586.946 677.5H561.984L1186.55 0.000244141H1211.33L688.5 564L1329.6 0.000244141H1354.38L586.946 677.5ZM410 0.000244141H432.751L-252 677.5H-286L410 0.000244141ZM-27.9354 482L-147.648 677.5H-179.847L-60.1341 482L516.154 0.000244141H548.352L-27.9354 482ZM891.318 0.000244141H863.103L361 435.13H331L777.91 0.000244141H755.067L59.0669 676.983H122.368C133.828 676.993 192.476 673.667 201.5 657C210.524 640.333 312.252 629.893 315 603.642C317.748 577.39 341.684 580 349.842 545.5C358 511 346 495 331 488.511L891.318 0.000244141ZM266.5 603.642C260.5 603.642 257 609 238.5 615.5C220 622 218.132 624.932 210.584 624.954H170.126L290 503L306.77 519C312.77 528.5 317 543.5 311 563.5C301 586.5 310 566 294 583.5L266.5 603.642ZM-27.9354 677.5H-53.0255L571.414 0.000244141H596.303L102 534.5L714.536 0.000244141H739.315L-27.9354 677.5ZM906.12 0.000244141H930.936L349.842 623.343L281.497 676.983L906.12 0.000244141ZM306.77 676.983L349.842 623.343L1049.33 0.0864258H1074.11L306.77 676.983Z" fill="#08081B"/>
</svg>
