<svg width="118" height="137" viewBox="0 0 190 164" fill="none" xmlns="http://www.w3.org/2000/svg">
<path d="M189.99 163.545L77.8268 0.75L0.795166 163.545H189.99Z" fill="#0F8383"/>
<path d="M185.645 163.545L79.6304 9.68457L6.82129 163.545H185.645Z" fill="#32BBBB"/>
<path d="M177.236 163.545L83.3519 27.4028L18.8735 163.545H177.236Z" fill="#F17F78"/>
<path d="M162.934 163.545L81.0133 44.6665L24.7517 163.545H162.934Z" fill="#2285E1"/>
<path d="M160.142 163.545L81.379 49.21L27.2856 163.545H160.142Z" fill="#1B466E"/>
<path d="M150.471 163.545L82.3426 64.5049L35.553 163.545H150.471Z" fill="#C68C48"/>
<path d="M139.815 163.545L79.6628 76.0142L38.3511 163.545H139.815Z" fill="#CF149B"/>
<path d="M136.74 163.545L84.5635 87.5234L48.7295 163.545H136.74Z" fill="#E0AED2"/>
<path d="M132.807 163.545L85.2834 94.4897L52.6448 163.545H132.807Z" fill="#E0DBAE"/>
<path d="M126.084 163.545L86.8686 106.453L59.936 163.545H126.084Z" fill="#F0511F"/>
<path d="M119.354 163.545L87.7826 117.66L66.0996 163.545H119.354Z" fill="#2EC3CD"/>
</svg>
