<svg width="118" height="137" viewBox="0 0 145 145" fill="none" xmlns="http://www.w3.org/2000/svg">
<path d="M46.1534 116C51.2482 112.931 55.8738 108.533 60.0359 104.259C60.0978 104.196 60.1715 104.146 60.2528 104.112C60.3341 104.078 60.4213 104.061 60.5094 104.061C60.5975 104.061 60.6848 104.078 60.7661 104.112C60.8474 104.146 60.9211 104.196 60.9829 104.259L68.8813 112.157C68.9445 112.219 68.9948 112.293 69.0291 112.375C69.0634 112.457 69.0811 112.545 69.0811 112.634C69.0811 112.722 69.0634 112.81 69.0291 112.892C68.9948 112.974 68.9445 113.048 68.8813 113.11C65.0351 116.824 60.9108 120.239 56.5444 123.325C56.379 123.442 56.1821 123.506 55.9796 123.509C55.7772 123.511 55.5787 123.452 55.4103 123.34L51.8066 120.925L46.1361 117.128C46.0412 117.067 45.9635 116.983 45.9102 116.883C45.857 116.784 45.8299 116.672 45.8317 116.559C45.8334 116.446 45.8638 116.336 45.9201 116.238C45.9764 116.14 46.0567 116.058 46.1534 116ZM125.569 120.968C119.93 119.817 114.144 118.334 108.874 116.003C108.763 115.954 108.667 115.877 108.597 115.778C108.527 115.679 108.485 115.564 108.476 115.443C108.466 115.323 108.49 115.202 108.544 115.093C108.598 114.985 108.68 114.893 108.782 114.828C117.207 109.374 126.628 106.823 136.337 105.462C133.443 111.08 129.822 116.294 125.569 120.968ZM6.54656 101.703C2.47301 92.5192 0.374414 82.5823 0.386773 72.5359C0.386773 32.7937 32.6047 0.575684 72.3469 0.575684C112.089 0.575684 144.307 32.7937 144.307 72.5359C144.321 82.9854 142.049 93.3115 137.652 102.791C126.11 103.755 114.752 107.356 104.976 113.57C104.827 113.666 104.656 113.72 104.479 113.728C104.302 113.736 104.126 113.696 103.969 113.614C97.841 110.352 92.2479 106.172 87.3837 101.219C87.3208 101.154 87.2719 101.076 87.2399 100.991C87.2079 100.906 87.1934 100.816 87.1975 100.725C87.2015 100.634 87.2239 100.545 87.2634 100.464C87.3028 100.382 87.3584 100.309 87.4268 100.249C94.0644 94.3427 97.294 85.624 97.2882 76.8276C97.2878 76.6751 97.3386 76.5269 97.4326 76.4068C97.5266 76.2867 97.6582 76.2017 97.8064 76.1655C111.205 72.9072 120.128 72.1674 128.827 84.3373C128.827 84.3373 137.626 78.3992 134.008 73.7563C133.74 73.4149 133.594 72.9932 133.594 72.5589C133.594 72.1246 133.74 71.7029 134.008 71.3615C137.831 66.6265 128.827 60.7689 128.827 60.7689C119.02 74.3924 112.457 69.1796 99.116 72.3632C98.9999 72.3911 98.8784 72.3874 98.7642 72.3524C98.65 72.3174 98.5473 72.2524 98.4667 72.1642C98.3862 72.0761 98.3308 71.9679 98.3063 71.851C98.2817 71.7341 98.289 71.6128 98.3273 71.4996C100.224 65.3801 106.617 60.2738 111.067 56.1606C112.368 54.9749 113.901 54.0743 115.571 53.5166C117.24 52.959 119.007 52.7566 120.759 52.9224C132.402 53.4204 133.193 35.9715 121.404 35.5858C110.019 36.3255 115.025 46.541 108.713 51.9639C101.804 58.2791 94.7552 63.8517 93.1002 73.5865C93.0713 73.7611 92.9971 73.925 92.8849 74.0619C92.7728 74.1988 92.6267 74.3039 92.4612 74.3665C87.0724 76.3692 82.024 79.1895 77.4935 82.7283C77.4081 82.7952 77.3077 82.8403 77.201 82.8597C77.0942 82.8791 76.9844 82.8721 76.881 82.8395C76.7775 82.807 76.6835 82.7497 76.6072 82.6726C76.5309 82.5955 76.4745 82.501 76.4428 82.3973C73.1615 71.6407 73.9847 57.643 84.7902 51.5983C90.4779 48.7199 95.0546 43.6971 97.1501 37.6409C97.7815 35.8227 99.0813 34.3129 100.785 33.4183C105.411 30.8565 110.46 20.9145 106.568 17.21C104.772 15.6701 102.251 14.7317 100.895 17.0431C99.4326 20.1114 95.8951 18.0044 94.335 20.4684C93.293 23.1251 93.0311 25.0738 93.6298 30.4104C94.1192 32.4769 94.0335 34.638 93.3822 36.6594C91.9524 40.8443 89.2375 44.4708 85.6249 47.0217C81.6787 49.2697 77.9482 52.1481 75.5505 56.034C75.4736 56.1555 75.3594 56.249 75.225 56.3004C75.0905 56.3519 74.9431 56.3585 74.8046 56.3194C74.6662 56.2802 74.544 56.1974 74.4564 56.0832C74.3689 55.969 74.3205 55.8296 74.3186 55.6857C74.2437 49.2035 74.9835 42.6724 75.4555 36.2132C76.2529 22.9726 86.1891 18.9687 73.5299 7.86957C60.8217 21.1419 73.5126 23.0762 72.5397 36.0261C71.3884 43.9907 70.3752 52.2834 70.237 60.4178C70.2358 60.561 70.1881 60.7 70.1012 60.8139C70.0143 60.9278 69.8928 61.0104 69.7549 61.0493C69.617 61.0882 69.4702 61.0814 69.3366 61.0298C69.2029 60.9782 69.0896 60.8846 69.0137 60.7632C65.5826 55.4352 60.0906 51.9553 55.3096 47.9514C48.9771 42.4824 46.3203 32.3188 53.1968 26.1705C55.9428 23.5799 49.4751 17.8576 44.884 17.8576C35.7969 17.7396 33.7561 30.5226 41.3062 34.2646C41.9762 34.5644 42.5688 35.0136 43.0383 35.5779C43.5078 36.1423 43.8418 36.8066 44.0147 37.52C45.464 42.7306 48.2886 47.4551 52.1923 51.1982C54.0143 53.0174 56.222 54.4134 58.283 55.9303C68.5531 63.0601 69.3764 72.8813 72.0418 83.6177C72.0778 83.7567 72.0679 83.9036 72.0136 84.0364C71.9592 84.1693 71.8633 84.281 71.7402 84.3548C71.6172 84.4287 71.4735 84.4607 71.3307 84.4462C71.1879 84.4316 71.0536 84.3712 70.948 84.274C65.4306 79.201 58.978 75.2512 51.9505 72.6452C51.791 72.5855 51.6493 72.4863 51.5386 72.357C51.4278 72.2276 51.3517 72.0723 51.3173 71.9055C49.6132 63.9582 42.4921 57.7437 36.6575 52.5741C33.4099 49.5652 31.422 45.4382 31.0936 41.0231C31.1281 37.0681 25.8578 34.6272 22.8498 37.3473C20.8983 38.6513 21.5833 41.5239 19.295 42.3155C18.2243 42.7141 17.3196 43.4627 16.7275 44.4397C14.6003 47.6376 17.3607 52.292 21.0883 52.0934C23.4813 51.9173 25.885 52.2353 28.1499 53.0276C30.4148 53.8199 32.4926 55.0695 34.2541 56.6989C38.068 60.2422 43.4333 64.554 45.5892 69.5711C45.6379 69.6848 45.6541 69.8099 45.6358 69.9322C45.6176 70.0546 45.5658 70.1695 45.4861 70.2641C45.4064 70.3587 45.302 70.4294 45.1845 70.4681C45.067 70.5069 44.941 70.5122 44.8207 70.4836C38.6149 68.9868 31.9542 68.9379 25.6131 68.9148C22.3087 68.6961 24.2775 62.9594 18.0544 63.561C16.3475 63.0371 13.3194 63.0544 11.3247 66.2034C9.7128 67.0007 8.50099 68.7047 8.30814 71.0103C7.24889 71.9544 6.42854 75.3279 7.57127 76.8189C7.74397 83.5429 15.1271 83.9747 17.2744 78.2581C21.0681 75.6273 26.2694 76.1396 30.6618 76.0648C36.1308 75.8719 41.6746 76.3267 46.9824 77.7918C47.1252 77.8324 47.2506 77.9191 47.3391 78.0383C47.4276 78.1575 47.4742 78.3026 47.4717 78.451C47.3623 87.1035 51.3086 95.1601 57.6382 100.96C57.7043 101.019 57.7577 101.091 57.7955 101.171C57.8332 101.252 57.8545 101.339 57.858 101.427C57.8615 101.516 57.8471 101.604 57.8158 101.687C57.7845 101.77 57.7368 101.846 57.6756 101.91C53.2343 106.492 48.269 111.121 42.6936 114.166C42.5294 114.254 42.344 114.294 42.1584 114.281C41.9728 114.269 41.7943 114.205 41.6429 114.097C30.515 106.254 18.8546 102.943 6.54656 101.703ZM103.511 118.763C109.153 121.667 115.333 123.616 121.55 125.038C118.005 128.365 114.132 131.324 109.991 133.872C104.404 131.635 98.9088 129.076 93.8716 125.982C93.7776 125.925 93.6996 125.845 93.6447 125.749C93.5899 125.654 93.5599 125.546 93.5576 125.436C93.5553 125.326 93.5808 125.217 93.6316 125.119C93.6824 125.021 93.7571 124.938 93.8485 124.877L102.858 118.803C102.954 118.74 103.065 118.703 103.179 118.696C103.294 118.688 103.409 118.712 103.511 118.763ZM104.812 136.77C94.6259 141.91 83.3647 144.557 71.9552 144.495C60.5458 144.432 49.3143 141.662 39.1848 136.411C44.4789 134.054 49.6322 131.393 54.6188 128.44C54.7844 128.344 54.9743 128.298 55.1657 128.306C55.3571 128.315 55.5419 128.378 55.6982 128.489C65.2516 135.15 78.6074 135.314 88.2242 128.688C88.3859 128.576 88.5769 128.515 88.7733 128.511C88.9698 128.507 89.1632 128.56 89.3295 128.665C94.2568 131.791 99.4357 134.502 104.812 136.77ZM92.6483 78.8684C92.6114 82.2765 91.8911 85.6426 90.53 88.7673C89.1688 91.892 87.1945 94.7119 84.724 97.0599C84.6562 97.1242 84.5756 97.1735 84.4874 97.2046C84.3992 97.2356 84.3055 97.2478 84.2124 97.2402C84.1192 97.2326 84.0287 97.2054 83.9467 97.1604C83.8648 97.1155 83.7932 97.0538 83.7367 96.9793C81.4367 93.9532 79.5376 90.6424 78.0864 87.1294C78.0328 86.9974 78.0225 86.8518 78.0572 86.7136C78.0919 86.5754 78.1697 86.4519 78.2793 86.3609C82.3322 82.9992 86.865 80.2623 91.7272 78.2409C91.8293 78.199 91.9403 78.1831 92.0501 78.1946C92.16 78.2061 92.2652 78.2447 92.3565 78.3068C92.4478 78.369 92.5222 78.4529 92.5731 78.5508C92.624 78.6488 92.6498 78.7579 92.6483 78.8684ZM84.6492 125.539C84.7417 125.603 84.8164 125.69 84.8662 125.791C84.9161 125.893 84.9395 126.005 84.9344 126.117C84.9292 126.23 84.8956 126.339 84.8366 126.436C84.7777 126.532 84.6954 126.611 84.5974 126.667L84.3844 126.785C76.8026 130.924 67.1456 130.688 59.7711 126.23C59.6759 126.172 59.5967 126.091 59.5407 125.994C59.4846 125.898 59.4534 125.789 59.45 125.678C59.4466 125.566 59.471 125.456 59.521 125.356C59.5711 125.256 59.6451 125.171 59.7366 125.107C63.8844 122.23 67.8277 119.069 71.538 115.646C71.661 115.532 71.8224 115.469 71.9899 115.469C72.1575 115.469 72.3189 115.532 72.4419 115.646C76.2742 119.225 80.3534 122.531 84.6492 125.539ZM68.769 89.8466C68.8346 89.9079 68.8871 89.9818 68.9234 90.0639C68.9597 90.146 68.9791 90.2345 68.9805 90.3242C68.9818 90.414 68.9651 90.5031 68.9312 90.5862C68.8973 90.6693 68.8471 90.7447 68.7834 90.808L61.9127 97.6672C61.7876 97.7915 61.6184 97.8613 61.442 97.8613C61.2657 97.8613 61.0965 97.7915 60.9714 97.6672L59.2703 95.9661C55.1351 91.8523 52.6342 86.377 52.2326 80.558C52.225 80.4443 52.2465 80.3307 52.2951 80.2276C52.3436 80.1246 52.4176 80.0356 52.51 79.9691C52.6025 79.9026 52.7103 79.8607 52.8235 79.8474C52.9366 79.8341 53.0512 79.8498 53.1566 79.8931C58.916 82.2431 64.2046 85.6119 68.769 89.838V89.8466ZM72.1425 93.0906L80.0927 100.787C80.1553 100.849 80.2051 100.923 80.2391 101.004C80.273 101.085 80.2905 101.172 80.2905 101.259C80.2905 101.347 80.273 101.434 80.2391 101.515C80.2051 101.596 80.1553 101.67 80.0927 101.732C78.2534 103.605 74.9662 106.964 73.1068 108.864C73.0449 108.927 72.9712 108.977 72.8899 109.011C72.8086 109.045 72.7214 109.062 72.6333 109.062C72.5452 109.062 72.4579 109.045 72.3766 109.011C72.2953 108.977 72.2216 108.927 72.1598 108.864L64.2557 100.96C64.1314 100.835 64.0617 100.666 64.0617 100.49C64.0617 100.313 64.1314 100.144 64.2557 100.019L71.1955 93.0877C71.2572 93.0249 71.3307 92.9749 71.4117 92.9407C71.4928 92.9064 71.5798 92.8884 71.6678 92.8879C71.7558 92.8874 71.8431 92.9042 71.9245 92.9375C72.006 92.9708 72.0801 93.0199 72.1425 93.0819V93.0906ZM36.2114 134.776C31.2465 131.886 26.6441 128.414 22.5016 124.434C29.0873 123.04 35.9581 121.354 40.4398 119.088C40.5932 119.012 40.7641 118.976 40.9354 118.987C41.1066 118.997 41.2722 119.052 41.4155 119.146L51.4094 125.663C51.5027 125.722 51.5795 125.804 51.6327 125.901C51.6858 125.999 51.7137 126.107 51.7137 126.218C51.7137 126.329 51.6858 126.438 51.6327 126.535C51.5795 126.632 51.5027 126.714 51.4094 126.774C46.6423 129.785 41.6486 132.422 36.4733 134.661L36.2114 134.776ZM36.4992 117.183C32.4292 118.87 25.7973 120.349 19.7153 121.604C15.5112 117.102 11.902 112.08 8.97593 106.659C18.6704 107.886 28.0511 110.557 36.5942 116.008C36.697 116.073 36.7801 116.164 36.8346 116.273C36.8891 116.381 36.9129 116.503 36.9035 116.624C36.894 116.744 36.8516 116.861 36.7808 116.959C36.7101 117.058 36.6137 117.135 36.5021 117.183H36.4992ZM89.2287 123.026C84.5108 119.865 80.0498 116.337 75.8873 112.474C75.8219 112.412 75.7698 112.337 75.7342 112.254C75.6986 112.171 75.6803 112.082 75.6803 111.992C75.6803 111.901 75.6986 111.812 75.7342 111.729C75.7698 111.646 75.8219 111.572 75.8873 111.509L83.0229 104.521C83.0841 104.459 83.1568 104.411 83.2368 104.378C83.3168 104.345 83.4026 104.327 83.4892 104.327C83.5758 104.327 83.6615 104.345 83.7416 104.378C83.8216 104.411 83.8943 104.459 83.9555 104.521C88.4491 109.059 93.4974 113.013 98.9807 116.288C99.0794 116.345 99.1617 116.426 99.2199 116.524C99.2781 116.622 99.3101 116.733 99.313 116.847C99.3159 116.96 99.2895 117.073 99.2364 117.174C99.1832 117.275 99.1051 117.36 99.0095 117.422L93.1059 121.239L90.334 123.035C90.1696 123.141 89.9775 123.197 89.7815 123.196C89.5856 123.194 89.3944 123.135 89.2316 123.026H89.2287Z" fill="#051778"/>
</svg>
