<svg width="118" height="137" viewBox="0 0 170 163" fill="none" xmlns="http://www.w3.org/2000/svg">
<path d="M169.014 81.5295C169.014 126.48 131.226 162.919 84.6106 162.919C37.9957 162.919 0.206787 126.48 0.206787 81.5295C0.206787 36.5794 37.9957 0.140137 84.6106 0.140137C131.226 0.140137 169.014 36.5794 169.014 81.5295Z" fill="white"/>
<path d="M33.9463 57.5616L51.2317 73.5791V90.1173H16.6951V73.5791L33.9463 57.5173M33.9463 56.3652L15.8389 73.2468V90.9702H52.0595V73.2468L33.9463 56.4095V56.3652Z" fill="#262626"/>
<path d="M128.291 57.4177L152.513 73.6845V90.1174H104.081V73.6845L128.291 57.4177ZM128.291 56.4097L103.225 73.2469V90.9704H153.409V73.2469L128.291 56.4097Z" fill="#262626"/>
<path d="M128.04 57.2405L152.53 73.6845V90.1174H16.6951V73.5792L34.2888 57.2405H128.04ZM128.297 56.4097H33.9463L15.8389 73.2469V90.9704H153.414V73.2469L128.297 56.4097Z" fill="#262626"/>
<path d="M22.8892 105.896H22.2556C21.9987 105.236 21.7072 104.589 21.3822 103.958C21.1519 103.513 20.8471 103.109 20.4802 102.762C20.1741 102.494 19.8251 102.277 19.447 102.119L22.4097 99.5493H22.5981C22.7264 99.5595 22.8543 99.524 22.9577 99.4496C22.9981 99.415 23.0303 99.3724 23.0519 99.3245C23.0736 99.2767 23.0843 99.2249 23.0833 99.1727C23.0843 99.1212 23.0735 99.0702 23.0518 99.0233C23.0301 98.9764 22.998 98.9347 22.9577 98.9013C22.8543 98.8268 22.7264 98.7914 22.5981 98.8016H20.9369C20.807 98.7934 20.678 98.8286 20.5715 98.9013C20.5313 98.9347 20.4992 98.9764 20.4774 99.0233C20.4557 99.0702 20.445 99.1212 20.446 99.1727C20.4449 99.2249 20.4556 99.2767 20.4773 99.3245C20.499 99.3724 20.5312 99.415 20.5715 99.4496C20.678 99.5223 20.807 99.5574 20.9369 99.5493H21.2851L17.7515 102.607V99.5493H18.6934C18.8234 99.5574 18.9523 99.5223 19.0588 99.4496C19.0978 99.4143 19.1287 99.3714 19.1494 99.3236C19.1701 99.2759 19.18 99.2244 19.1787 99.1727C19.1807 99.1216 19.1711 99.0708 19.1503 99.0238C19.1296 98.9769 19.0983 98.935 19.0588 98.9013C18.9523 98.8286 18.8234 98.7934 18.6934 98.8016H16.3187C16.1921 98.7912 16.066 98.8267 15.9648 98.9013C15.9235 98.9339 15.8907 98.9755 15.8689 99.0226C15.8471 99.0697 15.8369 99.1211 15.8392 99.1727C15.8369 99.2251 15.8471 99.2773 15.8688 99.3253C15.8906 99.3733 15.9234 99.4158 15.9648 99.4496C16.066 99.5241 16.1921 99.5597 16.3187 99.5493H16.9809V105.896H16.3187C16.1921 105.886 16.066 105.922 15.9648 105.996C15.926 106.028 15.8947 106.068 15.8731 106.113C15.8514 106.158 15.8399 106.207 15.8392 106.256C15.8382 106.307 15.8485 106.358 15.8691 106.405C15.8898 106.451 15.9204 106.493 15.9591 106.528C16.0609 106.606 16.1894 106.643 16.3187 106.633H18.6934C18.8246 106.644 18.9551 106.607 19.0588 106.528C19.0974 106.493 19.1281 106.451 19.1487 106.405C19.1694 106.358 19.1796 106.307 19.1787 106.256C19.1807 106.205 19.1711 106.155 19.1503 106.108C19.1296 106.061 19.0983 106.019 19.0588 105.985C18.9527 105.912 18.8224 105.881 18.6934 105.896H17.7515V103.598L18.8133 102.673C19.3587 102.845 19.846 103.157 20.2233 103.576C20.8664 104.502 21.3647 105.515 21.7018 106.583V106.65H22.8435C22.9748 106.663 23.1061 106.625 23.2089 106.544C23.2483 106.51 23.2798 106.469 23.3014 106.422C23.3231 106.375 23.3343 106.324 23.3345 106.273C23.3354 106.222 23.3247 106.171 23.303 106.124C23.2813 106.077 23.2491 106.035 23.2089 106.002C23.118 105.932 23.0051 105.895 22.8892 105.896Z" fill="#262626"/>
<path d="M55.4087 98.802H53.3194C53.191 98.7918 53.0632 98.8272 52.9598 98.9017C52.9195 98.9352 52.8874 98.9768 52.8657 99.0238C52.844 99.0707 52.8332 99.1217 52.8342 99.1731C52.8332 99.2253 52.8439 99.2772 52.8655 99.325C52.8872 99.3728 52.9194 99.4155 52.9598 99.45C53.0632 99.5245 53.191 99.5599 53.3194 99.5497H54.2556V103.825C54.2591 104.218 54.144 104.603 53.9245 104.933C53.7314 105.233 53.4672 105.484 53.1539 105.664C52.8543 105.822 52.5182 105.902 52.1777 105.897C51.9079 105.899 51.6407 105.846 51.393 105.742C51.1454 105.638 50.9227 105.485 50.7392 105.293C50.5406 105.101 50.3841 104.872 50.2791 104.62C50.1741 104.368 50.1228 104.097 50.1283 103.825V99.5497H51.0703C51.1983 99.5566 51.325 99.5215 51.4299 99.45C51.4696 99.4152 51.5008 99.3723 51.5216 99.3245C51.5423 99.2766 51.5519 99.225 51.5498 99.1731C51.5519 99.1221 51.5422 99.0712 51.5214 99.0243C51.5007 98.9773 51.4694 98.9354 51.4299 98.9017C51.325 98.8302 51.1983 98.7951 51.0703 98.802H48.9866C48.8618 98.7931 48.7375 98.8242 48.6327 98.8906C48.5922 98.9263 48.56 98.9699 48.5383 99.0186C48.5167 99.0674 48.506 99.12 48.5071 99.1731C48.505 99.225 48.5146 99.2766 48.5353 99.3245C48.5561 99.3723 48.5873 99.4152 48.627 99.45C48.7304 99.5245 48.8583 99.5599 48.9866 99.5497H49.3577V103.825C49.3561 104.349 49.5043 104.863 49.7858 105.31C50.0374 105.725 50.3928 106.071 50.8191 106.318C51.2457 106.544 51.7258 106.659 52.212 106.65C52.5846 106.654 52.9542 106.584 53.2978 106.444C53.6415 106.304 53.9519 106.097 54.2099 105.836C54.479 105.572 54.6904 105.257 54.8316 104.912C54.9729 104.566 55.041 104.197 55.032 103.825V99.5497H55.4087C55.5368 99.5566 55.6634 99.5215 55.7684 99.45C55.8074 99.4147 55.8383 99.3718 55.859 99.3241C55.8797 99.2763 55.8896 99.2249 55.8883 99.1731C55.8905 99.1215 55.8803 99.0701 55.8585 99.023C55.8367 98.9759 55.8039 98.9344 55.7627 98.9017C55.6628 98.8246 55.5356 98.7888 55.4087 98.802Z" fill="#262626"/>
<path d="M88.2064 105.897H87.8354C87.4256 105.185 86.9699 104.499 86.4711 103.842C86.2093 103.533 85.9081 103.258 85.5748 103.022C86.0923 102.86 86.5595 102.575 86.9334 102.192C87.2312 101.868 87.3994 101.451 87.4073 101.017C87.3986 100.721 87.3243 100.431 87.1894 100.165C87.0544 99.8991 86.862 99.6647 86.6252 99.4777C86.1202 99.0281 85.4552 98.7859 84.7699 98.802H81.3448C81.2164 98.7918 81.0886 98.8272 80.9852 98.9017C80.9456 98.9354 80.9144 98.9773 80.8936 99.0243C80.8729 99.0712 80.8632 99.1221 80.8653 99.1731C80.8631 99.225 80.8728 99.2766 80.8935 99.3245C80.9142 99.3723 80.9455 99.4152 80.9852 99.45C81.0886 99.5245 81.2164 99.5599 81.3448 99.5497H82.0584V105.897H81.3733C81.245 105.887 81.1171 105.922 81.0137 105.997C80.9746 106.032 80.9438 106.075 80.9231 106.123C80.9024 106.17 80.8924 106.222 80.8938 106.274C80.8925 106.324 80.9026 106.375 80.9232 106.422C80.9439 106.469 80.9748 106.511 81.0137 106.545C81.1145 106.625 81.2438 106.663 81.3733 106.65H83.7709C83.9039 106.662 84.0366 106.625 84.142 106.545C84.1795 106.51 84.2094 106.468 84.23 106.421C84.2506 106.374 84.2614 106.324 84.2619 106.274C84.2628 106.222 84.2521 106.171 84.2304 106.124C84.2086 106.077 84.1765 106.036 84.1363 106.002C84.0335 105.922 83.9022 105.884 83.7709 105.897H82.8005V103.238H84.4731C84.9565 103.464 85.3891 103.78 85.7461 104.169C86.3613 104.929 86.9022 105.743 87.3616 106.6V106.65H88.1779C88.3072 106.66 88.4356 106.623 88.5375 106.545C88.5762 106.51 88.6068 106.468 88.6275 106.422C88.6481 106.375 88.6583 106.324 88.6574 106.274C88.6584 106.222 88.6476 106.171 88.6259 106.124C88.6042 106.077 88.5721 106.036 88.5318 106.002C88.4402 105.93 88.3245 105.892 88.2064 105.897ZM86.3797 101.649C86.1567 101.909 85.8702 102.111 85.5463 102.236C85.1351 102.406 84.6917 102.491 84.2447 102.485H82.8005V99.5497H84.7813C85.2647 99.5395 85.734 99.7077 86.0943 100.02C86.2504 100.135 86.3792 100.281 86.4718 100.448C86.5644 100.615 86.6187 100.8 86.6309 100.99C86.6231 101.23 86.5349 101.461 86.3797 101.649Z" fill="#262626"/>
<path d="M114.103 101.349C114.09 101.479 114.129 101.607 114.211 101.71C114.247 101.748 114.292 101.778 114.341 101.799C114.39 101.82 114.443 101.831 114.496 101.831C114.55 101.831 114.603 101.82 114.652 101.799C114.701 101.778 114.746 101.748 114.782 101.71C114.86 101.607 114.896 101.481 114.885 101.355V99.5495H116.997V105.897H115.621C115.493 105.885 115.364 105.921 115.261 105.996C115.221 106.031 115.189 106.074 115.167 106.122C115.145 106.169 115.134 106.221 115.134 106.273C115.134 106.326 115.145 106.377 115.167 106.425C115.189 106.473 115.221 106.515 115.261 106.55C115.362 106.63 115.492 106.668 115.621 106.655H119.16C119.29 106.666 119.418 106.628 119.52 106.55C119.559 106.516 119.589 106.474 119.61 106.427C119.631 106.38 119.641 106.33 119.64 106.279C119.641 106.227 119.63 106.176 119.608 106.129C119.587 106.083 119.555 106.041 119.514 106.007C119.415 105.928 119.288 105.891 119.16 105.902H117.796V99.5495H119.902V101.349C119.89 101.476 119.927 101.602 120.005 101.704C120.042 101.742 120.086 101.771 120.135 101.792C120.184 101.812 120.237 101.823 120.291 101.823C120.344 101.823 120.397 101.812 120.446 101.792C120.495 101.771 120.539 101.742 120.576 101.704C120.659 101.604 120.698 101.477 120.685 101.349V98.8018H114.103V101.349Z" fill="#262626"/>
<path d="M153.278 104.041C153.242 104.004 153.197 103.974 153.148 103.953C153.099 103.933 153.046 103.922 152.993 103.922C152.94 103.922 152.887 103.933 152.838 103.953C152.789 103.974 152.744 104.004 152.708 104.041C152.631 104.141 152.594 104.265 152.605 104.39V105.908H148.46V102.933H150.281V103.487C150.27 103.613 150.309 103.738 150.39 103.836C150.426 103.875 150.47 103.906 150.519 103.928C150.568 103.949 150.621 103.96 150.675 103.96C150.729 103.96 150.783 103.949 150.832 103.928C150.881 103.906 150.925 103.875 150.961 103.836C151.042 103.738 151.081 103.613 151.069 103.487V101.687C151.081 101.56 151.042 101.433 150.961 101.333C150.924 101.295 150.88 101.265 150.831 101.245C150.782 101.224 150.729 101.214 150.675 101.214C150.622 101.214 150.569 101.224 150.52 101.245C150.471 101.265 150.427 101.295 150.39 101.333C150.309 101.433 150.27 101.56 150.281 101.687V102.208H148.46V99.5493H152.308V100.79C152.301 100.914 152.337 101.037 152.411 101.139C152.448 101.176 152.492 101.206 152.541 101.227C152.59 101.247 152.643 101.258 152.696 101.258C152.75 101.258 152.802 101.247 152.851 101.227C152.9 101.206 152.945 101.176 152.982 101.139C153.062 101.04 153.101 100.915 153.09 100.79V98.8016H147.033C146.905 98.7947 146.779 98.8299 146.674 98.9013C146.634 98.9351 146.603 98.9769 146.582 99.0239C146.561 99.0708 146.552 99.1217 146.554 99.1727C146.552 99.2246 146.561 99.2763 146.582 99.3241C146.603 99.372 146.634 99.4148 146.674 99.4496C146.779 99.5211 146.905 99.5562 147.033 99.5493H147.707V105.897H147.05C146.922 105.89 146.796 105.925 146.691 105.996C146.652 106.032 146.621 106.074 146.6 106.122C146.579 106.17 146.57 106.221 146.571 106.273C146.57 106.324 146.58 106.375 146.6 106.422C146.621 106.468 146.652 106.51 146.691 106.545C146.792 106.623 146.921 106.661 147.05 106.65H153.398V104.379C153.403 104.256 153.36 104.135 153.278 104.041Z" fill="#262626"/>
</svg>
