<svg width="118" height="137" viewBox="0 0 167 65" fill="none" xmlns="http://www.w3.org/2000/svg">
<path d="M55.913 43.5416C56.4301 43.5249 56.1767 42.7069 56.7624 42.8588C56.6461 42.709 56.4945 42.7881 56.4529 42.6215C56.6814 42.5612 56.9098 42.4987 57.1653 42.43C56.8974 42.2593 56.6606 42.0824 56.212 42.0866C56.9327 41.612 56.7188 40.9896 56.6752 40.4255C56.6419 39.9947 56.4675 39.6429 55.913 39.9114C55.8071 39.9634 55.6554 39.9947 55.6035 39.8282C55.5661 39.7033 55.6783 39.6533 55.7717 39.6054C56.4425 39.2661 56.4633 39.16 55.9649 38.4752C56.9119 38.3399 56.2411 37.6863 56.2183 37.3886C56.1123 36.0044 56.0251 34.6202 56.0417 33.2319C56.075 30.1762 55.9773 27.1268 55.5163 24.1003C55.3668 23.1199 55.2505 22.1312 54.8766 21.1904C54.534 20.3265 54.5838 19.3878 54.5651 18.4823C54.5049 15.5953 54.642 12.7145 54.8351 9.83158C54.9369 8.31 54.7583 6.76344 54.7728 5.22729C54.7811 4.24482 55.1944 3.57249 56.0604 3.13746C57.4913 2.42142 59.0323 2.10295 60.5941 1.86774C62.6833 1.55343 64.7477 1.08093 66.8577 0.868615C69.0134 0.652138 71.0716 1.04346 73.1172 1.61379C74.1577 1.90312 75.1691 2.27988 76.166 2.69618C78.6332 3.72652 79.8232 5.7102 80.2531 8.24547C80.4712 9.52351 80.5439 10.8265 80.2199 12.0817C79.8045 13.6907 79.5761 15.3476 78.6768 16.8358C78.276 17.4998 77.7921 18.1201 77.439 18.8195C77.3227 19.0506 77.248 19.1109 77.5366 19.317C78.816 20.2245 80.2261 20.951 81.3247 22.1104C82.899 23.7673 83.6757 25.7135 83.7691 28.0052C83.8937 31.0879 83.2479 33.9437 81.6196 36.5706C81.2043 37.2408 80.683 37.8174 80.17 38.4148C79.5387 39.1496 78.7703 39.7407 77.9852 40.1154C77.0881 40.5463 76.4276 41.2623 75.4765 41.6536C71.624 43.2293 67.5638 43.7997 63.5161 44.4491C61.7654 44.7301 60.0001 44.5511 58.2494 44.3304C57.427 44.2264 56.7603 43.6456 55.9192 43.5436L55.913 43.5416ZM74.1307 33.9146C74.0185 33.7127 74.0538 33.6086 74.1577 33.5108C75.2106 32.5179 76.0164 31.396 76.2843 29.916C76.5481 28.4527 75.8752 26.7979 74.6312 26.1256C74.2055 25.8966 73.7444 25.7613 73.275 25.6864C70.706 25.2743 68.1204 25.2326 65.5244 25.2972C64.6854 25.318 64.108 25.8675 63.4082 26.1651C63.1672 26.2671 63.0883 26.544 63.0759 26.8C63.0198 28.0219 62.8578 29.2541 62.9492 30.4655C63.08 32.2057 62.9949 33.9479 63.1756 35.686C63.3126 37.0077 63.2565 37.0119 64.5525 36.8558C64.675 36.8412 64.7996 36.8329 64.9242 36.8266C68.0602 36.6768 70.9553 35.6277 73.8046 34.4162C74.0123 34.3288 74.2013 34.1914 74.3861 34.0582C74.5398 33.9479 74.7122 33.8334 74.7184 33.5316C74.4858 33.6815 74.3176 33.7897 74.1286 33.9125L74.1307 33.9146ZM61.6304 14.2548C61.7301 15.5495 61.836 16.79 61.9129 18.0327C61.9419 18.501 62.2306 18.5073 62.5587 18.4677C64.0603 18.2867 65.5722 18.1472 67.028 17.7122C68.5212 17.2646 69.9376 16.6277 70.8244 15.2726C71.7881 13.801 72.3924 12.1587 72.6728 10.4165C72.8618 9.24667 72.4422 8.51398 71.3602 8.01026C70.6396 7.67514 69.8815 7.49821 69.082 7.44201C66.8349 7.28381 64.6812 7.92284 62.4819 8.16637C62.1164 8.20592 62.0478 8.39118 62.1205 8.72214C62.2036 9.10305 62.3303 9.47356 62.241 9.8857C61.9274 11.3428 61.7072 12.8165 61.6263 14.2569L61.6304 14.2548Z" fill="#2B1C49"/>
<path d="M124.27 42.4467C124.149 42.6902 123.881 42.4821 123.782 42.6777C123.842 42.8651 124.112 42.7444 124.164 42.9463C124.128 43.1232 123.96 43.1336 123.833 43.1877C123.647 43.2668 123.358 43.2647 123.345 43.5041C123.331 43.7893 123.653 43.5999 123.779 43.7123C123.935 43.8517 124.106 44.0203 124.062 44.2326C124.01 44.4845 123.742 44.3201 123.59 44.3992C123.661 44.5199 123.885 44.4658 123.894 44.6656C123.665 44.83 123.46 44.6011 123.171 44.6427C123.455 44.8155 123.555 44.9674 123.31 45.2484C122.945 45.6647 122.625 46.0435 121.977 46.0082C121.107 45.9603 120.243 45.8999 119.385 45.7459C118.639 45.6127 117.875 45.5815 117.14 45.3775C117.019 45.3442 116.897 45.3254 116.776 45.2921C116.39 45.188 116.058 44.9799 116.029 44.5636C116.004 44.1931 116.45 44.2306 116.683 43.9995C116.471 43.7227 116.139 43.4292 116.515 43.0399C115.688 41.433 116.959 39.9302 116.752 38.3066C116.623 37.295 117.24 36.2334 117.304 35.1489C117.476 32.2848 118.544 29.5705 118.698 26.6939C118.747 25.7593 119.129 24.8268 119.414 23.9026C119.852 22.4788 119.495 20.9801 119.672 19.5231C119.755 18.8362 119.746 18.1368 119.929 17.4187C120.162 17.6019 120.072 17.8121 120.185 17.9661C119.861 16.5569 120.315 15.1519 120.176 13.7448C120.149 13.4742 120.089 13.1578 120.417 12.9643C120.562 12.8768 120.629 12.7624 120.363 12.6957C120.207 12.6562 120.276 12.4813 120.313 12.3731C121.001 10.4331 121.119 8.36205 121.696 6.39294C122.074 5.10033 122.029 5.06078 123.435 4.91716C123.721 4.88801 124.012 4.88801 124.313 4.87344C124.27 4.64864 123.944 4.63407 123.985 4.37388C124.012 4.35723 124.062 4.31352 124.072 4.32184C124.843 4.96087 125.779 4.80059 126.675 4.89218C131.761 5.40631 136.822 6.0828 141.59 8.05607C143.721 8.93862 145.669 10.1667 146.799 12.3044C147.798 14.1986 148.263 16.2385 148.01 18.3783C147.872 19.5439 147.386 20.6263 146.689 21.5713C146.039 22.4518 145.301 23.2677 144.604 24.1107C144.591 24.1274 144.577 24.1565 144.564 24.1565C143.578 24.1357 143.272 25.1494 142.518 25.5074C141.665 25.9133 140.749 25.9737 139.858 26.1506C139.09 26.3046 138.292 26.3192 137.509 26.4004C137.353 26.417 137.171 26.365 137.056 26.5378C137.086 26.7792 137.337 26.6689 137.459 26.8063C137.437 26.8417 137.418 26.9103 137.38 26.9249C137.144 27.0186 137.088 27.1768 137.135 27.4203C137.258 28.0302 137.285 28.6671 137.565 29.2333C138.46 31.0442 138.745 33.0362 139.206 34.9637C139.557 36.4332 139.956 37.9069 140.163 39.3994C140.319 40.5192 140.845 41.5704 140.707 42.7506C140.66 43.1752 140.894 43.6352 141.019 44.0744C141.2 44.7072 141.495 45.3046 141.318 46.0082C141.233 46.3495 141.403 46.7471 141.625 46.9948C141.92 47.3195 141.871 47.6879 141.954 48.0439C141.985 48.1833 141.983 48.3332 141.866 48.3727C141.347 48.5538 141.011 49.1512 140.421 49.1054C138.552 48.9556 136.737 48.5289 134.984 47.869C134.22 47.5818 134.068 47.2029 134.338 46.3849C134.438 46.0873 134.456 45.8604 134.224 45.6605C134.043 45.5065 134.031 45.3088 134.006 45.1006C133.864 43.9829 133.617 42.8963 133.16 41.8597C132.859 41.177 132.834 40.4381 132.841 39.7012C132.841 39.6596 132.861 39.6054 132.841 39.5805C132.176 38.648 132.751 37.526 132.35 36.5227C131.96 35.5465 131.81 34.4766 131.513 33.4608C130.847 31.1878 130.12 28.9336 129.125 26.7771C128.969 26.4399 128.768 26.1215 128.575 25.803C128.38 25.4824 128.108 25.3555 127.74 25.522C127.649 25.5636 127.526 25.6385 127.455 25.6094C126.631 25.268 126.704 25.9258 126.625 26.3671C126.031 29.6767 125.505 33.0008 124.837 36.2959C124.502 37.9402 124 39.5492 123.79 41.2207C123.725 41.7327 123.58 42.2469 124.27 42.4446V42.4467ZM136.481 20.2599C136.948 20.2162 137.391 20.3224 137.781 20.0226C138.377 19.5626 138.928 19.0672 139.358 18.4407C140.492 16.7838 140.134 15.1623 138.465 14.0508C137.326 13.2931 136.016 13.1495 134.747 12.8685C132.874 12.4543 130.963 12.2378 129.057 12.0255C128.419 11.9547 128.201 12.1441 128.078 12.8061C127.765 14.4838 127.653 16.1823 127.547 17.8808C127.501 18.6343 127.64 18.8299 128.417 18.8508C129.314 18.8757 130.218 19.0152 131.034 19.317C132.818 19.9768 134.681 20.0143 136.481 20.2579V20.2599Z" fill="#2B1C49"/>
<path d="M27.0616 47.4213C26.9536 47.1341 27.1821 46.8655 27.0699 46.5637C26.6919 47.0362 26.5715 47.6565 26.1644 48.0978C26.0855 48.1852 26.046 48.3767 25.9048 48.3163C25.4396 48.1228 25.0741 48.4766 24.7003 48.5037C24.1125 48.5453 23.5248 48.8492 22.9475 48.6723C22.4823 48.5307 22.0482 48.4516 21.5622 48.5078C21.2258 48.5474 20.9122 48.3205 20.854 48.0041C20.7004 47.1882 20.0565 46.7053 19.5976 46.1308C18.4159 44.6571 17.6101 42.971 16.6797 41.3537C15.5312 39.3555 14.4284 37.326 13.0723 35.4589C12.3267 34.4327 11.5811 33.419 11.0453 32.2638C10.9581 32.0744 10.8688 31.8954 10.8231 31.6893C10.6673 30.9712 10.3953 30.2988 9.98405 29.691C9.43577 28.8813 9.05156 27.9696 8.54067 27.1578C7.95086 26.2232 7.50227 25.2262 6.97061 24.2708C6.0132 22.5473 5.19079 20.7406 4.13577 19.0816C2.92499 17.1791 1.83259 15.1892 0.360141 13.4595C0.0153913 13.0556 0.210611 12.5478 0.110924 12.0961C0.0797722 11.9566 0.264608 11.9524 0.341449 11.9795C0.806653 12.1398 1.16386 11.9025 1.51069 11.6673C2.47017 11.0137 3.58957 10.9138 4.69443 10.7431C4.71728 10.5141 4.50129 10.6244 4.44314 10.4996C4.48052 10.3372 4.66951 10.3268 4.76712 10.333C5.21363 10.3622 5.58953 10.333 5.96751 9.98751C6.26449 9.71483 6.63416 10.0146 6.91246 10.231C7.1326 10.4017 7.28628 10.4163 7.41712 9.98751C7.6871 11.6111 8.81066 12.554 9.63099 13.6822C10.1357 14.3753 10.5946 15.081 10.9581 15.8553C11.6538 17.3373 12.3578 18.7985 13.3713 20.1224C13.8054 20.6885 14.2145 21.39 14.4284 22.1289C14.7441 23.2134 15.2757 24.1813 15.9237 25.0972C16.0504 25.2762 16.2498 25.4947 15.9466 25.7403C15.851 25.8174 16.5052 27.0579 16.6444 27.0621C16.715 27.0621 16.6402 26.5521 16.8811 26.9747C16.9683 27.1287 16.9227 27.3556 17.0036 27.5159C17.5748 28.6628 17.9237 29.9075 18.6755 30.9774C19.3089 31.8787 19.8821 32.8216 20.5238 33.7208C20.7419 34.0268 20.6775 34.4702 20.9828 34.772C21.2113 34.9989 21.3338 35.0134 21.4875 34.722C21.637 34.441 21.7076 34.1475 21.7325 33.8332C21.7699 33.3753 21.7782 33.3857 22.231 33.2296C22.2953 33.2067 22.3327 33.061 22.3556 32.9652C22.7356 31.4228 23.2299 29.9304 23.2631 28.286C23.2943 26.8061 23.5186 25.3136 23.5373 23.8191C23.5435 23.2467 23.6349 22.6597 23.3047 22.0977C23.0991 22.5744 23.4999 23.0864 23.1821 23.561C22.9267 23.2176 22.8935 22.8741 22.9454 22.4911C23.5393 18.1324 24.2475 13.7904 24.937 9.44632C25.0346 8.83644 25.2299 8.17035 24.6733 7.62292C24.5445 7.49595 24.6733 7.33775 24.7937 7.25657C24.9973 7.11711 25.2091 6.97141 25.4396 6.88815C26.5113 6.50099 27.5746 6.07428 28.6732 5.78079C29.3357 5.60386 30.0522 5.64132 30.7438 5.53933C31.3232 5.45399 31.8881 5.27498 32.4945 5.25416C32.9057 5.23959 32.939 5.84739 33.3439 5.59553C33.4229 5.74332 33.3606 5.88902 33.3024 6.01391C32.5901 7.52092 32.7437 9.16531 32.5464 10.7535C32.4073 11.8713 32.4468 13.014 31.7843 14.0402C31.5558 14.3941 31.6306 14.9665 31.6306 15.4411C31.6306 17.5205 30.8767 19.4708 30.6233 21.5066C30.3762 23.5048 30.262 25.5114 30.1311 27.5179C30.0439 28.8439 30.1436 30.2884 29.5392 31.5207C28.9889 32.6405 28.9017 33.8207 28.6898 34.9947C28.6649 35.1342 28.6898 35.1258 28.8767 35.4131C28.9307 35.4964 28.9224 35.6774 28.8664 35.769C28.2558 36.789 28.4385 37.9442 28.3035 39.0432C28.0979 40.7417 28.0834 42.4673 27.5995 44.1304C27.4188 44.7466 27.5476 45.3939 27.4458 46.0309C27.3669 46.52 27.2381 46.9654 27.0658 47.4192L27.0616 47.4213Z" fill="#2B1C49"/>
<path d="M89.5669 4.33235C89.4174 4.14294 89.1931 4.29489 89.0893 4.12212C89.4984 3.38735 90.1484 3.21875 90.9376 3.26038C91.7912 3.30617 92.6572 3.18752 93.4983 3.18752C97.8139 3.18544 102.13 3.3145 106.443 3.42482C107.373 3.44771 108.302 3.60174 109.232 3.6517C109.913 3.68917 110.48 4.06592 111.13 4.21163C112.256 4.46349 113.425 4.52593 114.505 4.99635C114.8 5.12541 115.072 5.21699 115.253 5.55628C115.161 5.64578 114.624 5.59791 115.045 5.96425C115.103 6.01421 115.176 6.14326 115.153 6.17657C114.848 6.62201 115.22 7.18402 114.867 7.6357C114.482 8.12694 114.69 8.76388 114.516 9.32172C114.74 9.38417 114.642 9.13022 114.817 9.11773C114.943 9.55901 114.694 10.0398 114.896 10.477C114.547 10.5623 114.244 10.8704 113.874 10.7767C113.712 10.7351 113.535 10.6747 113.404 10.7205C111.803 11.2887 110.304 10.4541 108.748 10.3854C106.433 10.2834 104.136 9.8983 101.801 10.1772C100.994 10.273 100.148 10.1044 99.3258 10.0211C98.6488 9.95242 97.9697 9.98988 97.2926 9.84002C96.8773 9.74843 96.5035 9.92328 96.3435 10.4291C96.1649 10.9932 96.0839 11.5614 96.0777 12.1422C96.0652 13.4306 96.0507 14.7191 96.0632 16.0075C96.0777 17.4438 96.0258 18.8738 95.7309 20.285C95.6893 20.4869 95.6914 20.6992 95.6893 20.9053C95.6769 22.1396 95.9552 22.4643 97.1763 22.481C98.5823 22.5018 99.9946 22.431 101.394 22.6142C102.285 22.7308 103.199 22.7891 103.899 23.4926C104.075 23.6695 104.198 23.7695 104.113 24.0567C104.028 24.346 104.048 24.6728 104.046 24.983C104.046 25.1391 103.965 25.3389 104.119 25.4492C104.323 25.5949 104.416 25.3098 104.699 25.2015C104.453 26.5358 104.553 27.8367 103.671 28.9087C103.423 29.2105 102.996 29.0731 102.786 29.3916C102.771 29.4145 102.516 29.3271 102.518 29.3021C102.572 28.584 102.08 29.0419 101.855 29.0086C99.9385 28.7338 97.9988 29.0815 96.0777 28.8109C95.8015 28.7713 95.5128 28.7526 95.4567 29.1356C95.1535 31.1859 94.8192 33.232 94.572 35.2885C94.4703 36.1315 94.6136 36.1731 95.4837 36.3417C98.1919 36.8663 100.952 36.8871 103.681 37.1972C105.527 37.4075 107.421 37.3346 109.174 38.1298C109.421 38.2422 109.739 38.1964 110.071 38.2297C109.953 38.4919 109.67 38.4316 109.429 38.6418C110.028 38.5481 110.086 38.7563 109.926 39.1892C109.791 39.5514 109.849 39.974 109.762 40.3403C109.583 41.0793 109.859 41.8161 109.666 42.5509C109.5 43.1837 108.755 43.933 108.142 43.9767C108.121 43.9767 108.096 43.983 108.082 43.9746C106.966 43.3523 105.733 43.6603 104.559 43.575C101.664 43.3606 98.7776 43.013 95.8825 42.8943C93.7102 42.8048 91.5274 42.7507 89.3489 42.7632C88.6303 42.7673 88.2959 42.1658 87.7207 41.9805C88.0654 41.4768 87.0374 41.6204 87.3219 41.1209C87.5234 40.7691 87.486 40.3632 87.4735 39.9698C87.4694 39.8241 87.4964 39.6742 87.4611 39.5369C87.3385 39.0539 87.2679 38.6023 87.4839 38.1006C87.6106 37.805 87.6272 37.4054 87.3884 37.0848C87.2741 36.935 87.2845 36.7768 87.3738 36.6186C87.9325 35.6424 87.9263 34.5433 88.0093 33.4755C88.1734 31.3649 88.2752 29.248 88.4018 27.1352C88.5451 24.7603 88.4974 22.379 88.7549 20.0061C89.0186 17.5707 88.8255 15.1125 88.9044 12.6646C88.9335 11.7696 88.9917 10.8829 89.108 9.99613C89.1682 9.54444 89.2263 9.08235 88.9314 8.67229C88.8961 8.62234 88.8317 8.54948 88.8463 8.51202C89.3447 7.26728 88.9148 5.90805 89.3322 4.65707C89.3696 4.54675 89.4735 4.45724 89.5628 4.33652L89.5669 4.33235Z" fill="#2B1C49"/>
<path d="M153.141 18.6759C153.33 19.1213 153.471 19.0235 153.698 18.7779C154.03 18.4199 154.103 17.7288 154.626 17.6955C155.083 17.6664 155.573 17.9391 156.028 18.1306C156.931 18.5094 157.966 18.424 158.828 18.9278C159.122 19.1005 159.394 19.1838 159.731 19.0839C160.028 18.9965 160.061 19.1484 160.123 19.4357C160.443 20.8698 159.793 22.0771 159.297 23.3197C158.942 24.2065 158.462 25.0786 158.433 26.0382C158.323 29.6413 157.137 33.0383 156.493 36.5352C156.24 37.909 155.741 39.212 155.237 40.5088C154.481 42.4509 154.08 44.4949 153.509 46.4911C153.314 47.1717 153.123 47.8524 152.774 48.4727C152.489 48.9764 152.45 49.5571 152.246 50.0921C151.972 50.8123 151.426 51.214 150.95 51.7156C150.821 51.8509 150.695 51.8926 150.514 51.7864C149.415 51.1412 148.169 50.983 146.952 50.7394C146.394 50.627 146.101 50.423 146.028 49.7944C145.918 48.8661 145.924 47.9877 146.269 47.103C146.5 46.5119 146.699 45.9062 146.676 45.2338C146.666 44.9195 146.961 44.6031 147.083 44.2763C147.451 43.3022 147.723 42.2948 147.881 41.2686C148.176 39.3515 149.04 37.5801 149.28 35.6568C149.737 32.0204 150.643 28.4798 151.567 24.9433C151.897 23.6798 152.375 22.4538 152.776 21.2091C152.882 20.8781 153.021 20.5451 152.747 20.2058C152.614 20.0435 152.736 19.8499 152.801 19.675C152.904 19.3857 153 19.0901 153.141 18.6738V18.6759Z" fill="#2B1C49"/>
<path d="M46.7151 15.3265C46.7109 16.8648 46.8085 18.1137 47.2197 19.4063C47.7369 21.0278 47.8635 22.7825 48.092 24.4893C48.3911 26.7103 48.8355 28.9125 48.9061 31.1626C48.9331 32.0348 48.9518 32.9069 48.9539 33.7791C48.9539 35.5713 49.2633 37.3343 49.4066 39.114C49.4627 39.8196 49.4959 40.5169 49.4108 41.2267C49.3298 41.8886 49.5395 42.5443 49.4938 43.227C49.4482 43.9264 49.039 44.4052 48.8023 44.9859C48.74 45.1399 48.5697 45.1295 48.4181 45.1129C47.1221 44.9859 45.8511 45.2024 44.5843 45.4272C44.1315 45.5084 43.9135 45.346 43.6684 45.0005C42.9644 44.0118 42.9436 42.8732 42.8315 41.7367C42.5864 39.2326 42.3309 36.7265 42.09 34.2266C41.6477 29.6327 40.4597 25.1575 40.1108 20.5594C40.0153 19.296 39.9156 18.0346 39.9302 16.7649C39.9364 16.2486 39.8575 15.7304 39.818 15.2141C39.8076 15.0892 39.8055 14.9456 39.6872 14.879C39.0496 14.521 39.4836 13.8861 39.303 13.4095C39.2926 13.3803 39.3694 13.2763 39.3902 13.2804C40.2894 13.4719 39.9239 12.6664 40.0174 12.3604C40.1731 11.8483 40.3559 11.6027 40.9042 11.6568C42.196 11.7838 43.4566 11.3675 44.7463 11.4175C44.8875 11.4237 45.0266 11.4695 45.1409 11.4653C45.4275 11.4508 45.7826 10.9908 45.9425 11.2509C46.2374 11.7276 46.5552 12.2272 46.6465 12.8246C46.7878 13.7383 46.686 14.65 46.7068 15.3286L46.7151 15.3265Z" fill="#2B1C49"/>
<path d="M154.917 14.0175C155.089 12.6667 155.255 11.1784 155.741 9.75463C156.088 8.73677 157 8.20599 158.015 8.49115C159.255 8.84085 160.568 8.90121 161.764 9.42575C161.837 9.45697 161.928 9.44448 162.011 9.45281C162.829 9.53399 163.039 9.81499 162.91 10.6642C162.848 11.0805 162.663 11.4531 162.495 11.8341C162.298 12.2795 162.026 12.7145 162.302 13.2474C162.408 13.4535 162.262 13.6949 162.185 13.9072C161.878 14.7544 161.382 15.4975 160.873 16.2323C160.626 16.5903 160.395 16.582 160.131 16.2781C159.857 15.9617 159.515 15.8722 159.12 15.9575C158.842 16.0179 158.588 15.9346 158.329 15.8597C157.652 15.6619 156.975 15.4788 156.264 15.4246C155.629 15.3768 154.892 14.6545 154.917 14.0175Z" fill="#2B1C49"/>
<path d="M38.3065 4.1553C38.0448 3.47257 38.7343 2.97093 39.0126 2.3319C39.0853 2.16747 39.2909 2.17163 39.455 2.15706C40.9233 2.03425 42.3687 1.70329 43.8432 1.64501C43.9263 1.64084 44.026 1.65542 44.0883 1.61587C44.8173 1.15377 45.0063 1.70537 45.2098 2.21326C45.3427 2.54422 45.3925 2.89807 45.3448 3.25193C45.2576 3.92842 45.1288 4.57785 45.6542 5.18773C45.8847 5.45624 45.7601 5.91418 45.7311 6.2826C45.675 6.98615 45.513 7.67513 45.3406 8.35786C45.2534 8.70547 45.0789 8.85951 44.7155 8.69715C44.2918 8.50565 43.891 8.52855 43.4694 8.76584C43.2472 8.89073 42.9523 8.91779 42.6865 8.92403C42.08 8.94069 41.4944 9.04476 40.9087 9.19255C39.8682 9.45273 39.1601 9.01562 38.9212 7.98111C38.6409 6.76967 38.348 5.55824 38.3044 4.15322L38.3065 4.1553Z" fill="#2B1C49"/>
<path d="M77.3596 61.707C77.3596 61.1658 77.3638 60.6267 77.3596 60.0855C77.3555 59.715 77.4801 59.4944 77.8996 59.5069C78.5226 59.5256 79.1457 59.4881 79.7666 59.5277C80.3772 59.5672 80.8964 59.8191 81.1623 60.4186C81.4322 61.0305 81.3388 61.6154 80.9006 62.1004C80.6659 62.3606 80.6638 62.5521 80.8715 62.7936C80.9525 62.8872 81.0397 62.985 81.0896 63.0954C81.1976 63.3389 81.5838 63.5013 81.3658 63.8385C81.2329 64.0445 80.3565 63.9342 80.1571 63.6969C79.9847 63.4909 79.8352 63.2619 79.696 63.0329C79.4884 62.6916 79.1748 62.6458 78.8279 62.6999C78.4292 62.7644 78.5185 63.0954 78.5289 63.3451C78.5455 63.7802 78.3523 63.93 77.9349 63.9342C77.4967 63.9384 77.3451 63.7386 77.3555 63.3264C77.37 62.7873 77.3596 62.2461 77.3596 61.7049V61.707ZM79.2225 61.6529C79.6192 61.6425 80.0636 61.6591 80.0532 61.0909C80.0408 60.5226 79.5839 60.5767 79.1955 60.5497C78.7615 60.5205 78.4998 60.6205 78.5123 61.1492C78.5247 61.6966 78.8653 61.657 79.2225 61.6508V61.6529Z" fill="#2B1C49"/>
<path d="M47.9485 61.7278C47.9485 61.1887 47.9568 60.6496 47.9465 60.1105C47.9381 59.7046 48.0835 59.4902 48.5259 59.5089C49.1053 59.5318 49.6868 59.4944 50.2642 59.5277C50.8914 59.5631 51.4708 59.767 51.7304 60.3977C51.9817 61.0097 51.9381 61.6238 51.4562 62.1337C51.2631 62.3377 51.2403 62.5146 51.4147 62.729C51.5061 62.8414 51.6037 62.958 51.6577 63.0891C51.7615 63.3431 52.2081 63.5158 51.9194 63.8614C51.7283 64.0883 50.8851 63.9092 50.6795 63.6345C50.4926 63.3868 50.3327 63.1183 50.1375 62.8768C49.9402 62.6312 49.6536 62.6666 49.3878 62.7124C49.07 62.7665 49.1136 63.0413 49.1219 63.2598C49.1385 63.6657 49.0617 63.9384 48.5591 63.9384C48.0358 63.9384 47.9298 63.6532 47.9444 63.2223C47.9527 62.9747 47.9444 62.7249 47.9444 62.4751C47.9444 62.2253 47.9444 61.9776 47.9444 61.7278H47.9465H47.9485ZM49.8488 60.5559C49.4646 60.5435 49.1012 60.5122 49.1074 61.093C49.1115 61.5301 49.2839 61.6883 49.6951 61.6571C50.1084 61.6258 50.6401 61.7507 50.6463 61.093C50.6525 60.5705 50.2247 60.5747 49.8488 60.558V60.5559Z" fill="#2B1C49"/>
<path d="M65.8338 59.4024C67.1526 59.4108 68.1702 60.4349 68.1557 61.74C68.1412 63.0138 67.0986 64.0275 65.8297 64.0046C64.3821 63.9776 63.4704 63.0742 63.4808 61.6713C63.4891 60.3287 64.4611 59.392 65.8338 59.4024ZM64.6729 61.7212C64.6833 62.3894 65.1505 62.8681 65.7964 62.8702C66.4112 62.8702 66.9532 62.3374 66.9553 61.7275C66.9594 61.0572 66.4486 60.5618 65.7674 60.5702C65.0924 60.5806 64.6625 61.0323 64.6729 61.7212Z" fill="#2B1C49"/>
<path d="M129.439 61.8381C128.76 62.8892 128.083 62.8476 127.406 61.8381L127.306 61.9796C127.306 62.4459 127.298 62.9142 127.308 63.3805C127.319 63.8301 127.072 63.9383 126.675 63.9341C126.27 63.93 126.131 63.7426 126.135 63.3555C126.148 62.2544 126.135 61.1532 126.141 60.0521C126.141 59.8731 126.098 59.6483 126.326 59.5713C126.507 59.5089 126.638 59.6525 126.758 59.7649C127.201 60.1729 127.651 60.5725 128.077 60.9992C128.324 61.2448 128.513 61.2365 128.756 60.9992C129.203 60.5663 129.668 60.152 130.131 59.7337C130.253 59.6233 130.384 59.4922 130.569 59.5942C130.721 59.6775 130.7 59.844 130.7 59.9855C130.704 61.1283 130.694 62.271 130.706 63.4138C130.71 63.8467 130.467 63.9258 130.11 63.9341C129.718 63.9445 129.533 63.7822 129.539 63.3846C129.547 62.9184 129.539 62.4521 129.539 61.9858L129.437 61.8401L129.439 61.8381Z" fill="#2B1C49"/>
<path d="M60.0981 63.9634C58.6859 63.9655 57.7534 63.0684 57.7576 61.7091C57.7597 60.3791 58.7482 59.4008 60.0898 59.4028C61.4356 59.4028 62.4408 60.3853 62.4387 61.7008C62.4387 63.0642 61.5083 63.9634 60.1002 63.9655L60.0981 63.9634ZM60.094 60.5726C59.4253 60.5747 58.9517 61.041 58.9559 61.6967C58.958 62.3898 59.4543 62.8894 60.1231 62.8706C60.7544 62.8519 61.2445 62.3378 61.2404 61.6967C61.2342 61.0431 60.7544 60.5706 60.0961 60.5726H60.094Z" fill="#2B1C49"/>
<path d="M69.3871 61.6342C69.3871 61.1159 69.3912 60.5976 69.3871 60.0814C69.3829 59.7109 69.5096 59.4944 69.9291 59.509C70.467 59.5298 71.007 59.4882 71.5428 59.5236C72.7141 59.6027 73.5074 60.4228 73.5573 61.5676C73.6113 62.8207 72.9737 63.6179 71.7588 63.8531C71.1627 63.9676 70.5625 63.9135 69.9644 63.9322C69.576 63.9447 69.3912 63.7636 69.3933 63.3743C69.3974 62.7936 69.3933 62.2149 69.3933 61.6342C69.3933 61.6342 69.3891 61.6342 69.3871 61.6342ZM70.5501 61.7133C70.5501 61.7133 70.5542 61.7133 70.5563 61.7133C70.5563 61.9631 70.5521 62.2108 70.5563 62.4606C70.5605 62.6354 70.6082 62.779 70.7951 62.854C71.2728 63.0455 72.0204 62.7603 72.2468 62.2878C72.521 61.7195 72.3216 60.9556 71.8315 60.6892C71.0693 60.2771 70.5501 60.5643 70.548 61.4011C70.548 61.5052 70.548 61.6092 70.548 61.7133H70.5501Z" fill="#2B1C49"/>
<path d="M94.3198 61.7545C94.3198 62.2957 94.3094 62.8348 94.3239 63.376C94.3364 63.8298 94.0913 63.938 93.6967 63.9359C93.3021 63.9338 93.1173 63.7652 93.1422 63.3698C93.1443 63.3281 93.1422 63.2865 93.1422 63.2449C93.1152 62.2124 92.8224 62.0001 91.7757 62.2187C91.514 62.2728 91.4393 62.4268 91.4309 62.6558C91.4226 62.9056 91.4164 63.1554 91.4164 63.4031C91.4164 63.861 91.1298 63.9297 90.7518 63.9359C90.3469 63.9422 90.1911 63.759 90.1932 63.3739C90.1994 62.2728 90.2015 61.1717 90.1932 60.0706C90.189 59.6355 90.3988 59.5044 90.8121 59.5044C91.2295 59.5044 91.4413 59.6439 91.4226 60.0768C91.4164 60.2433 91.4393 60.4119 91.4226 60.5743C91.3645 61.1259 91.6179 61.2966 92.1495 61.2862C93.1339 61.2674 93.1298 61.2903 93.1464 60.3037C93.1526 59.9478 93.0425 59.5252 93.649 59.5106C94.1142 59.5002 94.353 59.6335 94.3302 60.1393C94.3052 60.6784 94.3239 61.2196 94.3239 61.7607L94.3198 61.7545Z" fill="#2B1C49"/>
<path d="M136.065 61.6134C136.065 62.3066 136.054 62.8602 136.069 63.4139C136.081 63.8469 135.832 63.9301 135.473 63.9322C135.13 63.9343 134.906 63.8302 134.906 63.4452C134.906 62.2816 134.895 61.1201 134.914 59.9566C134.922 59.457 135.194 59.4612 135.518 59.7234C136.1 60.1938 136.667 60.6788 137.252 61.143C137.421 61.2762 137.579 61.5635 137.809 61.4511C137.996 61.3595 137.886 61.0722 137.896 60.8703C137.909 60.6018 137.909 60.3312 137.9 60.0606C137.886 59.6152 138.125 59.5028 138.528 59.5069C138.941 59.5111 139.066 59.6984 139.061 60.0814C139.051 61.1826 139.061 62.2816 139.055 63.3827C139.055 63.5409 139.107 63.7407 138.914 63.824C138.706 63.9135 138.565 63.747 138.426 63.6283C137.674 62.9893 136.924 62.3482 136.065 61.6134Z" fill="#2B1C49"/>
<path d="M104.011 61.4698C104.011 60.9994 104.02 60.529 104.009 60.0565C103.999 59.6089 104.24 59.5028 104.641 59.507C105.056 59.5111 105.176 59.7026 105.172 60.0835C105.162 61.1826 105.172 62.2837 105.166 63.3827C105.166 63.5409 105.216 63.7407 105.027 63.824C104.817 63.9177 104.68 63.7449 104.541 63.6283C103.787 62.9914 103.037 62.3482 102.176 61.6134C102.176 62.3024 102.165 62.854 102.18 63.4056C102.188 63.7803 102.014 63.926 101.654 63.9281C101.301 63.9322 101.025 63.8594 101.023 63.4348C101.019 62.2733 101.006 61.1118 101.027 59.9503C101.035 59.4445 101.318 59.4674 101.636 59.7255C102.373 60.3229 103.106 60.9286 103.841 61.5323C103.899 61.5114 103.955 61.4885 104.013 61.4677L104.011 61.4698Z" fill="#2B1C49"/>
<path d="M43.1857 61.6966C43.1857 61.1575 43.1982 60.6163 43.1816 60.0772C43.1691 59.69 43.3103 59.5027 43.7195 59.5089C44.5481 59.5235 45.3788 59.5193 46.2075 59.511C46.546 59.5069 46.6997 59.6588 46.708 59.9939C46.7184 60.3519 46.5647 60.5414 46.1992 60.5434C45.7423 60.5476 45.2874 60.5476 44.8305 60.5559C44.5813 60.5601 44.3653 60.6246 44.3799 60.9368C44.3923 61.2262 44.6042 61.247 44.8243 61.2491C45.1358 61.2532 45.4474 61.2574 45.7568 61.2553C46.0683 61.2512 46.2116 61.401 46.2158 61.7091C46.2199 62.0109 46.0932 62.1816 45.7776 62.1858C45.5491 62.1878 45.3186 62.1733 45.0943 62.1982C44.8181 62.2295 44.382 62.0588 44.3903 62.5583C44.3965 63.0121 44.8035 62.8643 45.0631 62.8789C45.4349 62.9018 45.8108 62.8955 46.1825 62.8831C46.5501 62.8727 46.7142 63.035 46.708 63.4034C46.7017 63.7677 46.5294 63.9301 46.1701 63.9301C45.3601 63.9259 44.5523 63.9197 43.7423 63.9321C43.3041 63.9384 43.1649 63.7261 43.1795 63.316C43.1982 62.7769 43.1836 62.2357 43.1857 61.6966Z" fill="#2B1C49"/>
<path d="M29.5697 59.4066C29.9684 59.3941 30.3526 59.4691 30.7223 59.6169C30.9612 59.7126 31.3225 59.7792 31.1065 60.1539C30.9528 60.4245 30.8635 60.8762 30.3485 60.6805C30.118 60.5931 29.875 60.5306 29.632 60.4848C29.4492 60.4515 29.2166 60.4495 29.1523 60.6618C29.0796 60.9032 29.3163 60.9594 29.4866 61.0219C29.8355 61.1509 30.1948 61.2529 30.5354 61.3986C31.0546 61.6193 31.3869 62.0106 31.3557 62.5976C31.3204 63.2408 30.9695 63.6841 30.3485 63.8735C29.5801 64.1067 28.8324 64.0088 28.1159 63.6654C27.9166 63.5696 27.6528 63.4427 27.848 63.1575C28.0162 62.9119 28.0931 62.4706 28.5645 62.6579C28.9134 62.7974 29.2582 62.9327 29.6445 62.8807C29.7981 62.8598 29.9331 62.7995 29.9435 62.6225C29.9518 62.4831 29.8542 62.3894 29.7338 62.3457C29.4617 62.2458 29.1813 62.1688 28.9113 62.0668C28.0682 61.7462 27.6881 61.2675 27.7629 60.6451C27.8501 59.9249 28.4088 59.4795 29.3205 59.4087C29.4036 59.4025 29.4866 59.4087 29.5676 59.4087L29.5697 59.4066Z" fill="#2B1C49"/>
<path d="M35.4593 60.9408C35.4593 60.6723 35.4739 60.4017 35.4552 60.1331C35.424 59.6898 35.5902 59.4962 36.0595 59.5004C36.504 59.5045 36.6473 59.7106 36.6307 60.1102C36.5995 60.9158 36.722 61.7297 36.5289 62.5269C36.2901 63.5135 35.5341 64.0297 34.4376 63.9714C33.4075 63.9152 32.7242 63.2949 32.5892 62.3021C32.4874 61.559 32.5352 60.8117 32.5186 60.0665C32.5082 59.5711 32.7886 59.5129 33.1956 59.4983C33.638 59.4837 33.7024 59.6898 33.6982 60.0645C33.692 60.7056 33.7377 61.3467 33.7543 61.9898C33.7688 62.5331 34.0263 62.8662 34.5829 62.862C35.125 62.8578 35.4116 62.5248 35.449 61.9982C35.4739 61.6485 35.4531 61.2946 35.4531 60.9408H35.4593Z" fill="#2B1C49"/>
<path d="M38.0745 61.7112C38.0745 61.1534 38.0828 60.5935 38.0725 60.0356C38.0662 59.6714 38.2158 59.5028 38.5875 59.5111C39.2064 59.5236 39.8294 59.4882 40.4462 59.5319C41.3226 59.5923 41.9249 60.1813 41.9789 60.964C42.0329 61.755 41.5179 62.3898 40.6581 62.5876C40.4774 62.6292 40.2884 62.6875 40.1098 62.6729C39.5054 62.6229 39.1586 62.7874 39.2313 63.4868C39.2728 63.8864 38.9613 63.9364 38.6436 63.9322C38.3175 63.928 38.0725 63.8531 38.0766 63.4535C38.0828 62.8748 38.0766 62.2941 38.0766 61.7154L38.0745 61.7112ZM39.844 61.655C40.3258 61.6488 40.7619 61.6342 40.7432 61.0764C40.7245 60.5623 40.2926 60.5747 39.9187 60.5539C39.5241 60.5331 39.2417 60.6018 39.2417 61.1076C39.2417 61.6176 39.5221 61.6863 39.846 61.655H39.844Z" fill="#2B1C49"/>
<path d="M24.074 63.9321C23.8185 63.9237 23.6233 63.9445 23.4676 63.8197C22.6888 63.1931 21.9286 63.2347 21.1436 63.8238C20.8653 64.032 20.4977 63.9466 20.1737 63.9216C19.9038 63.9008 20.0118 63.6844 20.0865 63.5428C20.7345 62.2918 21.3845 61.0408 22.0429 59.7961C22.2028 59.4922 22.4042 59.4631 22.5787 59.7961C23.2183 61.0055 23.8601 62.2127 24.4893 63.4262C24.8009 64.0278 24.292 63.88 24.074 63.9341V63.9321Z" fill="#2B1C49"/>
<path d="M124.533 63.963C124.315 63.9193 124.078 63.9443 124.006 63.8465C123.574 63.2699 122.965 63.4593 122.406 63.4322C122.149 63.4197 121.927 63.4655 121.752 63.6987C121.48 64.0629 121.075 63.936 120.716 63.9006C120.483 63.8777 120.496 63.6799 120.581 63.5176C121.233 62.2687 121.887 61.0219 122.552 59.7792C122.701 59.4982 122.911 59.5044 123.061 59.7834C123.725 61.026 124.419 62.2541 125.021 63.5259C125.297 64.1087 124.668 63.8007 124.531 63.9651L124.533 63.963Z" fill="#2B1C49"/>
<path d="M145.257 63.9947C144.129 63.9572 143.384 63.4514 143.033 62.5272C142.7 61.653 142.929 60.6164 143.587 60.0086C144.264 59.3841 145.396 59.2114 146.262 59.6193C146.484 59.7234 146.854 59.8088 146.657 60.1751C146.495 60.4748 146.37 60.8724 145.828 60.6872C145.041 60.4186 144.513 60.5789 144.25 61.0993C144.017 61.5572 144.011 62.0256 144.347 62.4419C144.684 62.8561 145.128 62.9477 145.637 62.8228C145.847 62.7707 146.052 62.5584 146.277 62.7312C146.488 62.8935 146.709 63.1017 146.711 63.3806C146.711 63.645 146.43 63.7116 146.231 63.8073C145.907 63.9634 145.552 63.9801 145.257 63.9926V63.9947Z" fill="#2B1C49"/>
<path d="M85.1606 61.6755C85.1731 59.9353 87.0443 58.8321 88.604 59.6502C88.8096 59.7584 89.1253 59.8646 88.9238 60.1934C88.7639 60.4536 88.6663 60.8554 88.2052 60.718C88.1056 60.6888 88.0121 60.641 87.9103 60.6181C87.3662 60.5015 86.8657 60.5535 86.5376 61.0698C86.253 61.5194 86.28 61.996 86.5812 62.4144C86.928 62.8952 87.4327 62.9577 87.9768 62.8016C88.1845 62.7412 88.3922 62.5476 88.604 62.7745C88.7722 62.9535 88.9944 63.1325 88.982 63.3948C88.9653 63.7008 88.6663 63.7487 88.4399 63.8298C86.7494 64.446 85.1482 63.3906 85.1627 61.6734L85.1606 61.6755Z" fill="#2B1C49"/>
<path d="M55.0823 59.5173C55.5163 59.5173 55.9524 59.5194 56.3865 59.5173C56.7042 59.5153 56.8247 59.686 56.8309 59.9836C56.8392 60.2875 56.7728 60.531 56.4114 60.5394C55.9151 60.5519 55.4187 60.5519 54.9223 60.5581C54.6669 60.5623 54.4654 60.633 54.4841 60.9473C54.5008 61.2388 54.7147 61.2512 54.9306 61.2533C55.3024 61.2575 55.6762 61.2617 56.048 61.2617C56.3325 61.2617 56.4529 61.4053 56.4571 61.6863C56.4613 61.9798 56.3678 62.1754 56.0459 62.1838C55.6949 62.1921 55.3419 62.2046 54.9909 62.1942C54.6295 62.1838 54.4447 62.3211 54.4675 62.7021C54.48 62.9081 54.453 63.1184 54.4696 63.3244C54.507 63.7928 54.2765 63.9385 53.8403 63.9385C53.3855 63.9385 53.2817 63.7012 53.2858 63.3078C53.2962 62.2504 53.3004 61.193 53.2858 60.1376C53.2796 59.6943 53.4416 59.484 53.9047 59.5111C54.2972 59.534 54.6918 59.5153 55.0843 59.5153V59.5215L55.0823 59.5173Z" fill="#2B1C49"/>
<path d="M110.829 61.8881C111.162 61.1825 111.429 60.6038 111.706 60.0293C111.932 59.5589 112.451 59.357 112.935 59.5256C113.182 59.6109 113.126 59.7608 113.045 59.9148C112.391 61.1617 111.737 62.4106 111.072 63.6532C110.919 63.9405 110.715 63.9197 110.568 63.6387C109.918 62.4127 109.274 61.1825 108.632 59.9502C108.487 59.6713 108.574 59.536 108.898 59.5131C109.388 59.4756 109.774 59.5381 109.982 60.0876C110.198 60.6642 110.505 61.2075 110.831 61.8902L110.829 61.8881Z" fill="#2B1C49"/>
<path d="M118.453 59.5132C118.908 59.5132 119.363 59.5215 119.817 59.5111C120.15 59.5028 120.322 59.6402 120.324 59.9815C120.328 60.2854 120.243 60.4852 119.892 60.5435C118.978 60.6913 118.98 60.7038 118.98 61.6134C118.98 62.2129 118.972 62.8144 118.98 63.4139C118.987 63.8365 118.748 63.9343 118.384 63.9343C118.015 63.9343 117.792 63.8177 117.801 63.4014C117.811 62.7187 117.774 62.0339 117.811 61.3511C117.84 60.7891 117.697 60.4769 117.066 60.5414C116.825 60.5664 116.536 60.556 116.478 60.2251C116.411 59.8441 116.432 59.5028 116.964 59.5111C117.46 59.5194 117.957 59.5111 118.453 59.5111V59.5132Z" fill="#2B1C49"/>
<path d="M115.353 61.688C115.353 62.25 115.345 62.8099 115.355 63.3719C115.363 63.8153 115.135 63.9402 114.73 63.9339C114.331 63.9277 114.175 63.7612 114.182 63.3657C114.194 62.2646 114.194 61.1635 114.182 60.0623C114.177 59.6669 114.333 59.5087 114.734 59.5045C115.145 59.5003 115.363 59.6294 115.355 60.0665C115.345 60.6056 115.353 61.1468 115.355 61.688H115.353Z" fill="#2B1C49"/>
<path d="M99.5408 61.7526C99.5408 62.2938 99.5304 62.8329 99.5449 63.3741C99.5553 63.8258 99.3103 63.9361 98.9157 63.9299C98.5211 63.9257 98.3612 63.7571 98.3653 63.3596C98.3778 62.2585 98.3778 61.1573 98.3653 60.0541C98.3612 59.6524 98.5335 59.5067 98.9281 59.5025C99.3352 59.4984 99.5574 59.6233 99.547 60.0666C99.5325 60.6266 99.5429 61.1886 99.5429 61.7506L99.5408 61.7526Z" fill="#2B1C49"/>
<path d="M133.419 61.7837C133.419 62.3208 133.413 62.8578 133.421 63.3969C133.427 63.8049 133.218 63.9381 132.842 63.9339C132.484 63.9298 132.242 63.8465 132.246 63.4177C132.256 62.2812 132.254 61.1447 132.246 60.0082C132.244 59.6252 132.441 59.5107 132.788 59.5107C133.128 59.5107 133.417 59.544 133.415 59.9874C133.413 60.5869 133.415 61.1864 133.415 61.7858H133.417L133.419 61.7837Z" fill="#2B1C49"/>
<path d="M82.6963 61.6716C82.6963 61.1346 82.7046 60.5976 82.6942 60.0605C82.6838 59.6151 82.9185 59.5048 83.3172 59.5069C83.7139 59.5089 83.8738 59.6692 83.8697 60.0626C83.8593 61.1783 83.8593 62.294 83.8697 63.4097C83.8738 63.8322 83.6474 63.9321 83.284 63.9342C82.9122 63.9384 82.69 63.8197 82.6942 63.4076C82.7025 62.8289 82.6942 62.2503 82.6942 61.6716H82.6963Z" fill="#2B1C49"/>
<path d="M166.833 8.71598C166.833 8.84712 166.845 8.93246 166.831 9.01364C166.783 9.25509 166.964 9.6818 166.619 9.69013C166.26 9.69845 166.432 9.27174 166.39 9.03029C166.363 8.87209 166.413 8.68268 166.147 8.69517C165.904 8.70557 165.898 8.86169 165.907 9.03861C165.911 9.12187 165.921 9.20513 165.911 9.28631C165.89 9.46532 165.911 9.7151 165.668 9.71927C165.448 9.72135 165.491 9.47573 165.47 9.32586C165.439 9.10106 165.41 8.87209 165.421 8.64729C165.443 8.20809 165.213 7.47332 166.135 7.95623C167.221 7.49206 166.698 8.41416 166.833 8.72014V8.71598Z" fill="#2B1C49"/>
</svg>
